<svg width="50" height="50" viewBox="0 0 50 50" fill="none" xmlns="http://www.w3.org/2000/svg">
<g filter="url(#filter0_i_3207_1708)">
<path d="M0 25C0 11.1929 11.1929 0 25 0H50V50H25C11.1929 50 0 38.8071 0 25Z" fill="#50BB69"/>
</g>
<path d="M1 25C1 11.7452 11.7452 1 25 1H49V49H25C11.7452 49 1 38.2548 1 25Z" stroke="#44AA5C" stroke-width="2"/>
<path d="M28.4899 21.8858C28.795 21.5807 28.795 21.086 28.4899 20.7809C28.1848 20.4758 27.6902 20.4758 27.3851 20.7809L23.2184 24.9476C23.0659 25.1001 22.9896 25.3001 22.9896 25.5C22.9896 25.6059 23.0107 25.707 23.0489 25.7991C23.087 25.8912 23.1435 25.9775 23.2184 26.0524L27.3851 30.2191C27.6902 30.5242 28.1848 30.5242 28.4899 30.2191C28.795 29.914 28.795 29.4194 28.4899 29.1143L25.6569 26.2813H35.75C36.1815 26.2813 36.5313 25.9315 36.5313 25.5C36.5313 25.0685 36.1815 24.7188 35.75 24.7188H25.6569L28.4899 21.8858Z" fill="#FAFBFC"/>
<defs>
<filter id="filter0_i_3207_1708" x="0" y="0" width="50" height="60" filterUnits="userSpaceOnUse" color-interpolation-filters="sRGB">
<feFlood flood-opacity="0" result="BackgroundImageFix"/>
<feBlend mode="normal" in="SourceGraphic" in2="BackgroundImageFix" result="shape"/>
<feColorMatrix in="SourceAlpha" type="matrix" values="0 0 0 0 0 0 0 0 0 0 0 0 0 0 0 0 0 0 127 0" result="hardAlpha"/>
<feOffset dy="10"/>
<feGaussianBlur stdDeviation="5"/>
<feComposite in2="hardAlpha" operator="arithmetic" k2="-1" k3="1"/>
<feColorMatrix type="matrix" values="0 0 0 0 0 0 0 0 0 0 0 0 0 0 0 0 0 0 0.1 0"/>
<feBlend mode="normal" in2="shape" result="effect1_innerShadow_3207_1708"/>
</filter>
</defs>
</svg>

