<svg width="20" height="15" viewBox="0 0 20 15" fill="none" xmlns="http://www.w3.org/2000/svg">
<path d="M11.8729 4.11459H1.58334C1.15187 4.11459 0.802094 3.76481 0.802094 3.33334C0.802094 2.90187 1.15187 2.55209 1.58334 2.55209H11.8729C12.1947 1.64179 13.0628 0.989594 14.0833 0.989594C15.1039 0.989594 15.972 1.64179 16.2938 2.55209H18.25C18.6815 2.55209 19.0313 2.90187 19.0313 3.33334C19.0313 3.76481 18.6815 4.11459 18.25 4.11459H16.2938C15.972 5.0249 15.1039 5.67709 14.0833 5.67709C13.0628 5.67709 12.1947 5.0249 11.8729 4.11459Z" fill="#CFD9E6"/>
<path d="M18.25 12.4479C18.6815 12.4479 19.0313 12.0981 19.0313 11.6667C19.0313 11.2352 18.6815 10.8854 18.25 10.8854H7.96043C7.63865 9.97512 6.77049 9.32294 5.75001 9.32294C4.72953 9.32294 3.86137 9.97512 3.53962 10.8854H1.58334C1.15187 10.8854 0.802094 11.2352 0.802094 11.6667C0.802094 12.0981 1.15187 12.4479 1.58334 12.4479H3.53962C3.86137 13.3582 4.72953 14.0104 5.75001 14.0104C6.77049 14.0104 7.63865 13.3582 7.96043 12.4479H18.25Z" fill="#CFD9E6"/>
</svg>
