<svg width="21" height="18" viewBox="0 0 21 18" fill="none" xmlns="http://www.w3.org/2000/svg">
<path fill-rule="evenodd" clip-rule="evenodd" d="M6.59375 9.54163C6.59375 7.38423 8.34264 5.63538 10.5 5.63538C12.6574 5.63538 14.4062 7.38423 14.4062 9.54163C14.4062 11.699 12.6574 13.4479 10.5 13.4479C8.34264 13.4479 6.59375 11.699 6.59375 9.54163ZM10.5 7.19788C9.20563 7.19788 8.15625 8.24725 8.15625 9.54163C8.15625 10.836 9.20563 11.8854 10.5 11.8854C11.7944 11.8854 12.8438 10.836 12.8438 9.54163C12.8438 8.24725 11.7944 7.19788 10.5 7.19788Z" fill="#FF709D"/>
<path fill-rule="evenodd" clip-rule="evenodd" d="M9.05843 1.98956C7.96974 1.98956 7.08716 2.87215 7.08716 3.96087C7.08716 4.65457 6.55464 5.23209 5.8632 5.28825L3.54071 5.47688C3.08469 5.51391 2.70967 5.85112 2.62456 6.30065C2.15711 8.76935 2.12225 11.3006 2.52155 13.7813L2.62285 14.4107C2.71851 15.0051 3.20772 15.4573 3.80777 15.506L5.83103 15.6703C8.93853 15.9227 12.0615 15.9227 15.169 15.6703L17.1922 15.506C17.7923 15.4573 18.2815 15.0051 18.3772 14.4107L18.4784 13.7813C18.8777 11.3006 18.8429 8.76935 18.3754 6.30065C18.2903 5.85112 17.9153 5.51391 17.4593 5.47688L15.1368 5.28825C14.4453 5.2321 13.9128 4.65457 13.9128 3.96087C13.9128 2.87215 13.0302 1.98956 11.9416 1.98956H9.05843ZM5.53099 3.74758C5.64126 1.89523 7.17841 0.427063 9.05843 0.427063H11.9416C13.8216 0.427063 15.3587 1.89523 15.469 3.74758L17.5857 3.9195C18.743 4.01348 19.6947 4.86921 19.9106 6.00996C20.4118 8.65654 20.4492 11.3702 20.0211 14.0296L19.9198 14.6589C19.7098 15.9637 18.6359 16.9564 17.3186 17.0634L15.2954 17.2277C12.1037 17.4869 8.89624 17.4869 5.70456 17.2277L3.6813 17.0634C2.36409 16.9564 1.29021 15.9637 1.0802 14.6589L0.978899 14.0296C0.550847 11.3702 0.588212 8.65654 1.08933 6.00996C1.30533 4.86921 2.25702 4.01348 3.41423 3.9195L5.53099 3.74758Z" fill="#FF709D"/>
</svg>
