<svg width="19" height="16" viewBox="0 0 19 16" fill="none" xmlns="http://www.w3.org/2000/svg">
<path d="M5.33333 5.89581C4.61421 5.89581 4.03125 6.47875 4.03125 7.19792C4.03125 7.91698 4.61421 8.5 5.33333 8.5C6.05246 8.5 6.63542 7.91698 6.63542 7.19792C6.63542 6.47875 6.05246 5.89581 5.33333 5.89581Z" fill="#38F135"/>
<path d="M9.49996 5.89581C8.78079 5.89581 8.19788 6.47875 8.19788 7.19792C8.19788 7.91698 8.78079 8.5 9.49996 8.5C10.2191 8.5 10.802 7.91698 10.802 7.19792C10.802 6.47875 10.2191 5.89581 9.49996 5.89581Z" fill="#38F135"/>
<path d="M12.3645 7.19792C12.3645 6.47875 12.9474 5.89581 13.6666 5.89581C14.3858 5.89581 14.9687 6.47875 14.9687 7.19792C14.9687 7.91698 14.3858 8.5 13.6666 8.5C12.9474 8.5 12.3645 7.91698 12.3645 7.19792Z" fill="#38F135"/>
<path fill-rule="evenodd" clip-rule="evenodd" d="M13.7715 0.784108C10.9651 0.544774 8.14402 0.530879 5.33531 0.742577L5.13403 0.757743C2.45559 0.959618 0.385376 3.19173 0.385376 5.87777V14.75C0.385376 15.0249 0.529824 15.2795 0.765741 15.4205C1.00166 15.5615 1.29434 15.5682 1.53646 15.4381L5.6102 13.2488C5.79969 13.147 6.01146 13.0937 6.22658 13.0937H15.577C16.7563 13.0937 17.7668 12.2506 17.9783 11.0904C18.4067 8.73914 18.4405 6.33292 18.0784 3.97052L17.9717 3.27435C17.7775 2.0069 16.7406 1.03731 15.463 0.928347L13.7715 0.784108ZM5.45275 2.30065C8.17808 2.09524 10.9156 2.10872 13.6388 2.34095L15.3302 2.48519C15.8889 2.53284 16.3423 2.95684 16.4272 3.51109L16.5339 4.20726C16.8698 6.39818 16.8384 8.62976 16.4411 10.8104C16.365 11.2278 16.0013 11.5312 15.577 11.5312H6.22658C5.75331 11.5312 5.28742 11.6484 4.87053 11.8725L1.94788 13.4432V5.87777C1.94788 4.00912 3.38811 2.45626 5.25146 2.31583L5.45275 2.30065Z" fill="#38F135"/>
</svg>
