<svg width="13" height="13" viewBox="0 0 13 13" fill="none" xmlns="http://www.w3.org/2000/svg">
<path d="M7.28121 1.29169C7.28121 0.860218 6.93142 0.510437 6.49996 0.510437C6.0685 0.510437 5.71871 0.860218 5.71871 1.29169V5.71877H1.29163C0.860157 5.71877 0.510376 6.06856 0.510376 6.50002C0.510376 6.93148 0.860157 7.28127 1.29163 7.28127H5.71871V11.7084C5.71871 12.1398 6.0685 12.4896 6.49996 12.4896C6.93142 12.4896 7.28121 12.1398 7.28121 11.7084V7.28127H11.7083C12.1398 7.28127 12.4895 6.93148 12.4895 6.50002C12.4895 6.06856 12.1398 5.71877 11.7083 5.71877H7.28121V1.29169Z" fill="#0077FF"/>
</svg>

