<svg width="19" height="19" viewBox="0 0 19 19" fill="none" xmlns="http://www.w3.org/2000/svg">
<path fill-rule="evenodd" clip-rule="evenodd" d="M4.65051 1.18466C7.84749 0.827361 11.1525 0.827361 14.3495 1.18466C16.1335 1.38406 17.5728 2.78969 17.7824 4.58083C18.1646 7.84917 18.1646 11.1509 17.7824 14.4193C17.5728 16.2104 16.1335 17.616 14.3495 17.8155C11.1525 18.1728 7.84749 18.1728 4.65051 17.8155C2.86643 17.616 1.42709 16.2104 1.2176 14.4193C0.835343 11.1509 0.835343 7.84917 1.2176 4.58083C1.42709 2.78969 2.86643 1.38406 4.65051 1.18466ZM9.49999 4.2994C9.93145 4.2994 10.2812 4.64917 10.2812 5.08065V8.71886H13.9195C14.3509 8.71886 14.7007 9.06855 14.7007 9.50011C14.7007 9.93157 14.3509 10.2814 13.9195 10.2814H10.2812V13.9195C10.2812 14.3509 9.93145 14.7007 9.49999 14.7007C9.06853 14.7007 8.71874 14.3509 8.71874 13.9195V10.2814H5.0806C4.64912 10.2814 4.29935 9.93157 4.29935 9.50011C4.29935 9.06855 4.64912 8.71886 5.0806 8.71886H8.71874V5.08065C8.71874 4.64917 9.06853 4.2994 9.49999 4.2994Z" fill="white"/>
</svg>
