<svg width="23" height="23" viewBox="0 0 23 23" fill="none" xmlns="http://www.w3.org/2000/svg">
<path d="M11.2812 1.5625C11.2812 1.13103 10.9314 0.78125 10.5 0.78125C10.0685 0.78125 9.71873 1.13103 9.71873 1.5625V2.63455C4.67013 3.02884 0.685423 7.21179 0.605371 12.3427C0.599976 12.6889 0.849955 12.9822 1.18593 13.0382C4.01159 13.5092 6.86404 13.7643 9.71873 13.8036V19.7917C9.71873 20.2231 9.36893 20.5729 8.93748 20.5729C8.50602 20.5729 8.15623 20.2231 8.15623 19.7917V19.2708C8.15623 18.8394 7.80644 18.4896 7.37498 18.4896C6.94351 18.4896 6.59373 18.8394 6.59373 19.2708V19.7917C6.59373 21.086 7.64306 22.1354 8.93748 22.1354C10.2318 22.1354 11.2812 21.086 11.2812 19.7917V13.8036C14.1359 13.7643 16.9884 13.5092 19.814 13.0382C20.15 12.9822 20.4 12.6889 20.3946 12.3427C20.3146 7.21178 16.3299 3.02883 11.2812 2.63455V1.5625Z" fill="#9FB4CD"/>
<circle cx="19.5" cy="3.5" r="3.5" fill="#FF5E61"/>
</svg>
