<svg width="21" height="15" viewBox="0 0 21 15" fill="none" xmlns="http://www.w3.org/2000/svg">
<path fill-rule="evenodd" clip-rule="evenodd" d="M12.6482 0.854311C10.1842 0.595436 7.70109 0.576175 5.23351 0.796811L3.58581 0.944134C2.2242 1.06587 1.12405 2.10608 0.926298 3.45875C0.534496 6.13863 0.534496 8.86134 0.926298 11.5412C1.12405 12.8939 2.2242 13.9342 3.58581 14.0558L5.23351 14.2032C7.70109 14.4238 10.1842 14.4046 12.6482 14.1457L13.2812 14.0792C14.5771 13.943 15.6257 12.9783 15.8781 11.7121L19.0519 13.3982C19.2834 13.5212 19.561 13.52 19.7913 13.3949C20.0216 13.2698 20.1738 13.0376 20.1967 12.7766L20.2227 12.4809C20.5132 9.16665 20.5132 5.83332 20.2227 2.5191L20.1967 2.22344C20.1738 1.96237 20.0216 1.73018 19.7913 1.60511C19.561 1.48005 19.2834 1.47879 19.0519 1.60174L15.8781 3.28795C15.6257 2.02164 14.5771 1.05699 13.2812 0.920832L12.6482 0.854311ZM5.37265 2.3531C7.73959 2.14147 10.1215 2.15995 12.4848 2.40826L13.1179 2.47477C13.7549 2.54171 14.2656 3.03206 14.3583 3.66591C14.7299 6.20843 14.7299 8.79155 14.3583 11.3341C14.2656 11.9679 13.7549 12.4583 13.1179 12.5252L12.4848 12.5918C10.1215 12.8401 7.7396 12.8585 5.37265 12.6469L3.72496 12.4996C3.08366 12.4422 2.5655 11.9523 2.47236 11.3152C2.10247 8.7852 2.10247 6.21478 2.47236 3.68478C2.5655 3.0477 3.08366 2.55777 3.72496 2.50043L5.37265 2.3531ZM16.0833 4.94826C16.2383 6.64593 16.2383 8.35415 16.0833 10.0518L18.7364 11.4613C18.9253 8.82384 18.9253 6.17613 18.7364 3.53868L16.0833 4.94826Z" fill="#C56AFF"/>
</svg>
